<svg width="26" height="26" viewBox="0 0 26 26" fill="none" xmlns="http://www.w3.org/2000/svg">
<path opacity="0.5" d="M1 22H25M1 25V13C1 12.2044 1.28095 11.4413 1.78105 10.8787C2.28115 10.3161 2.95942 10 3.66667 10H22.3333C23.0406 10 23.7189 10.3161 24.219 10.8787C24.719 11.4413 25 12.2044 25 13V25H1ZM3.66667 10V4C3.66667 3.20435 3.94762 2.44129 4.44772 1.87868C4.94781 1.31607 5.62609 1 6.33333 1H19.6667C20.3739 1 21.0522 1.31607 21.5523 1.87868C22.0524 2.44129 22.3333 3.20435 22.3333 4V10H3.66667Z" stroke="black" stroke-width="2" stroke-linecap="round" stroke-linejoin="round"/>
</svg>
