<svg width="24" height="25" viewBox="0 0 24 25" fill="none" xmlns="http://www.w3.org/2000/svg">
<g opacity="0.7">
<path d="M21.97 18.7704C21.97 19.1304 21.89 19.5004 21.72 19.8604C21.55 20.2204 21.33 20.5604 21.04 20.8804C20.55 21.4204 20.01 21.8104 19.4 22.0604C18.8 22.3104 18.15 22.4404 17.45 22.4404C16.43 22.4404 15.34 22.2004 14.19 21.7104C13.04 21.2204 11.89 20.5604 10.75 19.7304C9.58811 18.8805 8.49169 17.9446 7.47 16.9304C6.45877 15.9124 5.5261 14.8193 4.68 13.6604C3.86 12.5204 3.2 11.3804 2.72 10.2504C2.24 9.11043 2 8.02043 2 6.98043C2 6.30043 2.12 5.65043 2.36 5.05043C2.6 4.44043 2.98 3.88043 3.51 3.38043C4.15 2.75043 4.85 2.44043 5.59 2.44043C5.87 2.44043 6.15 2.50043 6.4 2.62043C6.66 2.74043 6.89 2.92043 7.07 3.18043L9.39 6.45043C9.57 6.70043 9.7 6.93043 9.79 7.15043C9.88 7.36043 9.93 7.57043 9.93 7.76043C9.93 8.00043 9.86 8.24043 9.72 8.47043C9.59 8.70043 9.4 8.94043 9.16 9.18043L8.4 9.97043C8.29 10.0804 8.24 10.2104 8.24 10.3704C8.24 10.4504 8.25 10.5204 8.27 10.6004C8.3 10.6804 8.33 10.7404 8.35 10.8004C8.53 11.1304 8.84 11.5604 9.28 12.0804C9.73 12.6004 10.21 13.1304 10.73 13.6604C11.27 14.1904 11.79 14.6804 12.32 15.1304C12.84 15.5704 13.27 15.8704 13.61 16.0504C13.66 16.0704 13.72 16.1004 13.79 16.1304C13.87 16.1604 13.95 16.1704 14.04 16.1704C14.21 16.1704 14.34 16.1104 14.45 16.0004L15.21 15.2504C15.46 15.0004 15.7 14.8104 15.93 14.6904C16.16 14.5504 16.39 14.4804 16.64 14.4804C16.83 14.4804 17.03 14.5204 17.25 14.6104C17.47 14.7004 17.7 14.8304 17.95 15.0004L21.26 17.3504C21.52 17.5304 21.7 17.7404 21.81 17.9904C21.91 18.2404 21.97 18.4904 21.97 18.7704Z" stroke="white" stroke-width="1.5" stroke-miterlimit="10"/>
</g>
</svg>
