<svg width="24" height="25" viewBox="0 0 24 25" fill="none" xmlns="http://www.w3.org/2000/svg">
<g opacity="0.7">
<path d="M14 9.85957V12.7596H16.6C16.8 12.7596 16.9 12.9596 16.9 13.1596L16.5 15.0596C16.5 15.1596 16.3 15.2596 16.2 15.2596H14V22.5596H11V15.3596H9.3C9.1 15.3596 9 15.2596 9 15.0596V13.1596C9 12.9596 9.1 12.8596 9.3 12.8596H11V9.55957C11 7.85957 12.3 6.55957 14 6.55957H16.7C16.9 6.55957 17 6.65957 17 6.85957V9.25957C17 9.45957 16.9 9.55957 16.7 9.55957H14.3C14.1 9.55957 14 9.65957 14 9.85957Z" stroke="white" stroke-width="1.5" stroke-miterlimit="10" stroke-linecap="round"/>
<path d="M15 22.5596H9C4 22.5596 2 20.5596 2 15.5596V9.55957C2 4.55957 4 2.55957 9 2.55957H15C20 2.55957 22 4.55957 22 9.55957V15.5596C22 20.5596 20 22.5596 15 22.5596Z" stroke="white" stroke-width="1.5" stroke-linecap="round" stroke-linejoin="round"/>
</g>
</svg>
