<svg width="24" height="24" viewBox="0 0 24 24" fill="none" xmlns="http://www.w3.org/2000/svg">
<path opacity="0.5" d="M1.33333 0C1.68696 0 2.02609 0.0903058 2.27614 0.251051C2.52619 0.411797 2.66667 0.629814 2.66667 0.857143V6C2.66623 6.53199 2.92247 7.05097 3.40008 7.48541C3.87768 7.91986 4.55312 8.24839 5.33333 8.42571V0.857143C5.33333 0.629814 5.47381 0.411797 5.72386 0.251051C5.97391 0.0903058 6.31305 0 6.66667 0C7.02029 0 7.35943 0.0903058 7.60948 0.251051C7.85952 0.411797 8 0.629814 8 0.857143V8.42571C8.78021 8.24839 9.45566 7.91986 9.93326 7.48541C10.4109 7.05097 10.6671 6.53199 10.6667 6V0.857143C10.6667 0.629814 10.8071 0.411797 11.0572 0.251051C11.3072 0.0903058 11.6464 0 12 0C12.3536 0 12.6928 0.0903058 12.9428 0.251051C13.1929 0.411797 13.3333 0.629814 13.3333 0.857143V6C13.3336 6.98799 12.803 7.9457 11.8311 8.71106C10.8592 9.47642 9.50582 10.0024 8 10.2V23.1429C8 23.3702 7.85952 23.5882 7.60948 23.7489C7.35943 23.9097 7.02029 24 6.66667 24C6.31305 24 5.97391 23.9097 5.72386 23.7489C5.47381 23.5882 5.33333 23.3702 5.33333 23.1429V10.2C3.82751 10.0024 2.47414 9.47642 1.50226 8.71106C0.530378 7.9457 -0.000313534 6.98799 1.38971e-07 6V0.857143C1.38971e-07 0.629814 0.140476 0.411797 0.390525 0.251051C0.640573 0.0903058 0.979712 0 1.33333 0ZM19.944 2.53543C20.368 2.26114 20.8453 2.05029 21.3333 1.91143V10.2857H18.6667V4.28571C18.6667 3.708 19.1307 3.05657 19.944 2.53543ZM21.3333 12V23.1429C21.3333 23.3702 21.4738 23.5882 21.7239 23.7489C21.9739 23.9097 22.313 24 22.6667 24C23.0203 24 23.3594 23.9097 23.6095 23.7489C23.8595 23.5882 24 23.3702 24 23.1429V0.857143C24 0.629814 23.8595 0.411797 23.6095 0.251051C23.3594 0.0903058 23.0203 0 22.6667 0C20.8987 0 19.2453 0.558857 18.056 1.32171C16.8693 2.08629 16 3.14914 16 4.28571V11.1429C16 11.3702 16.1405 11.5882 16.3905 11.7489C16.6406 11.9097 16.9797 12 17.3333 12H21.3333Z" fill="black"/>
</svg>
