<svg width="24" height="25" viewBox="0 0 24 25" fill="none" xmlns="http://www.w3.org/2000/svg">
<g opacity="0.7">
<path d="M9 22.5596H15C20 22.5596 22 20.5596 22 15.5596V9.55957C22 4.55957 20 2.55957 15 2.55957H9C4 2.55957 2 4.55957 2 9.55957V15.5596C2 20.5596 4 22.5596 9 22.5596Z" stroke="white" stroke-width="1.5" stroke-linecap="round" stroke-linejoin="round"/>
<path d="M12 16.0596C12.4596 16.0596 12.9148 15.969 13.3394 15.7931C13.764 15.6173 14.1499 15.3594 14.4749 15.0344C14.7999 14.7094 15.0577 14.3236 15.2336 13.899C15.4095 13.4743 15.5 13.0192 15.5 12.5596C15.5 12.0999 15.4095 11.6448 15.2336 11.2202C15.0577 10.7955 14.7999 10.4097 14.4749 10.0847C14.1499 9.75969 13.764 9.50188 13.3394 9.32599C12.9148 9.1501 12.4596 9.05957 12 9.05957C11.0717 9.05957 10.1815 9.42832 9.52513 10.0847C8.86875 10.7411 8.5 11.6313 8.5 12.5596C8.5 13.4878 8.86875 14.3781 9.52513 15.0344C10.1815 15.6908 11.0717 16.0596 12 16.0596Z" stroke="white" stroke-width="1.5" stroke-linecap="round" stroke-linejoin="round"/>
<path d="M17.636 7.55957H17.648" stroke="white" stroke-width="2" stroke-linecap="round" stroke-linejoin="round"/>
</g>
</svg>
