<svg width="24" height="25" viewBox="0 0 24 25" fill="none" xmlns="http://www.w3.org/2000/svg">
<g opacity="0.7">
<path d="M12 13.8704C12.4097 13.8704 12.8154 13.7897 13.194 13.6329C13.5725 13.4761 13.9165 13.2463 14.2062 12.9565C14.4959 12.6668 14.7257 12.3229 14.8825 11.9443C15.0393 11.5658 15.12 11.1601 15.12 10.7504C15.12 10.3406 15.0393 9.93493 14.8825 9.5564C14.7257 9.17786 14.4959 8.83392 14.2062 8.5442C13.9165 8.25448 13.5725 8.02466 13.194 7.86787C12.8154 7.71107 12.4097 7.63037 12 7.63037C11.1725 7.63037 10.3789 7.95908 9.79383 8.5442C9.20872 9.12931 8.88 9.9229 8.88 10.7504C8.88 11.5778 9.20872 12.3714 9.79383 12.9565C10.3789 13.5417 11.1725 13.8704 12 13.8704Z" stroke="white" stroke-width="1.5"/>
<path d="M3.62001 8.93043C5.59001 0.270432 18.42 0.280432 20.38 8.94043C21.53 14.0204 18.37 18.3204 15.6 20.9804C14.6321 21.914 13.3398 22.4356 11.995 22.4356C10.6503 22.4356 9.35794 21.914 8.39001 20.9804C5.63001 18.3204 2.47001 14.0104 3.62001 8.93043Z" stroke="white" stroke-width="1.5"/>
</g>
</svg>
