<svg width="24" height="25" viewBox="0 0 24 25" fill="none" xmlns="http://www.w3.org/2000/svg">
<path d="M16.15 13.58L14.42 14.16C13.94 14.32 13.57 14.69 13.41 15.17L12.83 16.9C12.34 18.39 10.24 18.36 9.78 16.87L7.83 10.59C7.45 9.34001 8.6 8.19001 9.83 8.57001L16.12 10.52C17.61 10.99 17.63 13.09 16.15 13.58Z" stroke="white" stroke-width="1.5" stroke-linecap="round" stroke-linejoin="round"/>
<path d="M12 22.75C17.523 22.75 22 18.273 22 12.75C22 7.227 17.523 2.75 12 2.75C6.477 2.75 2 7.227 2 12.75C2 18.273 6.477 22.75 12 22.75Z" stroke="white" stroke-width="1.5" stroke-linecap="round" stroke-linejoin="round"/>
</svg>
