<svg width="75" height="76" viewBox="0 0 75 76" fill="none" xmlns="http://www.w3.org/2000/svg">
<g clip-path="url(#clip0_569_860)">
<path d="M1.60059 37.8319C1.59883 44.1334 3.2582 50.2863 6.41348 55.7095L1.29883 74.2392L20.4098 69.2671C25.6956 72.1224 31.618 73.6185 37.6363 73.6188H37.6521C57.5198 73.6188 73.6926 57.5773 73.7011 37.8601C73.7049 28.3058 69.9584 19.3215 63.1516 12.5622C56.3459 5.80344 47.2946 2.07931 37.6507 2.07495C17.7807 2.07495 1.60908 18.1156 1.60088 37.8319" fill="url(#paint0_linear_569_860)"/>
<path d="M0.313477 37.8203C0.311426 44.3485 2.03027 50.7215 5.29805 56.3389L0 75.5328L19.7962 70.3825C25.2507 73.3334 31.3919 74.8892 37.6409 74.8915H37.657C58.2375 74.8915 74.9912 58.2729 75 37.8499C75.0035 27.9523 71.1223 18.645 64.0723 11.6436C57.0214 4.64297 47.6464 0.784831 37.657 0.780762C17.073 0.780762 0.32168 17.397 0.313477 37.8203ZM12.1025 55.3715L11.3634 54.2072C8.25615 49.3049 6.61611 43.6398 6.61846 37.8226C6.6252 20.8473 20.5482 7.03658 37.6688 7.03658C45.9598 7.04006 53.7516 10.247 59.6121 16.0656C65.4724 21.8848 68.6971 29.6203 68.695 37.8476C68.6874 54.8229 54.7641 68.6354 37.657 68.6354H37.6447C32.0745 68.6325 26.6115 67.1482 21.8473 64.3433L20.7135 63.6761L8.96602 66.7322L12.1025 55.3712V55.3715Z" fill="url(#paint1_linear_569_860)"/>
<path d="M28.3232 22.3354C27.6242 20.7938 26.8886 20.7627 26.2238 20.7357C25.6795 20.7124 25.0572 20.7141 24.4355 20.7141C23.8133 20.7141 22.8022 20.9464 21.9477 21.8723C21.0922 22.799 18.6816 25.0386 18.6816 29.5935C18.6816 34.1487 22.0253 38.5508 22.4914 39.1691C22.9581 39.7862 28.9464 49.4327 38.4304 53.1438C46.3124 56.2278 47.9164 55.6144 49.627 55.4598C51.338 55.3057 55.1477 53.2208 55.925 51.0589C56.7028 48.8973 56.7028 47.0444 56.4696 46.6572C56.2364 46.2714 55.6142 46.0397 54.681 45.5769C53.7477 45.1138 49.1603 42.874 48.3052 42.565C47.4497 42.2563 46.8277 42.1022 46.2055 43.0293C45.5832 43.9548 43.7964 46.0397 43.2518 46.6572C42.7077 47.2761 42.1631 47.3531 41.2303 46.89C40.2966 46.4255 37.2916 45.449 33.7265 42.2952C30.9526 39.8412 29.08 36.8107 28.5356 35.8836C27.9913 34.958 28.4773 34.4563 28.9452 33.995C29.3645 33.5801 29.8786 32.9139 30.3456 32.3734C30.8108 31.8327 30.9661 31.447 31.2772 30.8295C31.5887 30.2115 31.4328 29.6708 31.1999 29.2077C30.9661 28.7447 29.1529 24.1659 28.3232 22.3354Z" fill="white"/>
</g>
<defs>
<linearGradient id="paint0_linear_569_860" x1="3621.41" y1="7218.5" x2="3621.41" y2="2.07495" gradientUnits="userSpaceOnUse">
<stop stop-color="#1FAF38"/>
<stop offset="1" stop-color="#60D669"/>
</linearGradient>
<linearGradient id="paint1_linear_569_860" x1="3750" y1="7475.98" x2="3750" y2="0.780762" gradientUnits="userSpaceOnUse">
<stop stop-color="#F9F9F9"/>
<stop offset="1" stop-color="white"/>
</linearGradient>
<clipPath id="clip0_569_860">
<rect width="75" height="75" fill="white" transform="translate(0 0.780762)"/>
</clipPath>
</defs>
</svg>
